<mxfile host="app.diagrams.net" modified="2023-08-29T04:16:36.025Z" agent="Mozilla/5.0 (Windows NT 10.0; Win64; x64) AppleWebKit/537.36 (KHTML, like Gecko) Chrome/116.0.0.0 Safari/537.36" version="21.6.9" etag="vquFfJV1z7T9k-5qTHJn" type="github">
  <diagram name="페이지-1" id="njK5p5rhTmzjdiSMJk1E">
    <mxGraphModel>
      <root>
        <mxCell id="0" />
        <mxCell id="1" parent="0" />
      </root>
    </mxGraphModel>
  </diagram>
</mxfile>
